<mxfile host="app.diagrams.net" modified="2021-11-22T14:02:19.118Z" agent="5.0 (Windows NT 10.0; Win64; x64) AppleWebKit/537.36 (KHTML, like Gecko) Chrome/96.0.4664.45 Safari/537.36" etag="HMWJmGFAZKMqFB1AZhR6" version="15.8.3" type="github">
  <diagram id="C5RBs43oDa-KdzZeNtuy" name="Page-1">
    <mxGraphModel dx="1751" dy="529" grid="1" gridSize="10" guides="1" tooltips="1" connect="1" arrows="1" fold="1" page="1" pageScale="1" pageWidth="827" pageHeight="1169" math="0" shadow="0">
      <root>
        <mxCell id="WIyWlLk6GJQsqaUBKTNV-0" />
        <mxCell id="WIyWlLk6GJQsqaUBKTNV-1" parent="WIyWlLk6GJQsqaUBKTNV-0" />
        <mxCell id="uddgrojwwecJSDZZouhw-0" value="Server" style="rounded=1;whiteSpace=wrap;html=1;fontSize=12;glass=0;strokeWidth=1;shadow=0;" vertex="1" parent="WIyWlLk6GJQsqaUBKTNV-1">
          <mxGeometry x="20" y="330" width="120" height="40" as="geometry" />
        </mxCell>
        <mxCell id="uddgrojwwecJSDZZouhw-1" value="Client 1" style="rounded=1;whiteSpace=wrap;html=1;fontSize=12;glass=0;strokeWidth=1;shadow=0;" vertex="1" parent="WIyWlLk6GJQsqaUBKTNV-1">
          <mxGeometry x="286" y="270" width="120" height="40" as="geometry" />
        </mxCell>
        <mxCell id="uddgrojwwecJSDZZouhw-3" value="Client n" style="rounded=1;whiteSpace=wrap;html=1;fontSize=12;glass=0;strokeWidth=1;shadow=0;" vertex="1" parent="WIyWlLk6GJQsqaUBKTNV-1">
          <mxGeometry x="286" y="390" width="120" height="40" as="geometry" />
        </mxCell>
        <mxCell id="uddgrojwwecJSDZZouhw-6" value="" style="shape=doubleArrow;whiteSpace=wrap;html=1;" vertex="1" parent="WIyWlLk6GJQsqaUBKTNV-1">
          <mxGeometry x="160" y="340" width="80" height="20" as="geometry" />
        </mxCell>
        <mxCell id="uddgrojwwecJSDZZouhw-11" value="" style="strokeWidth=2;html=1;shape=mxgraph.flowchart.annotation_2;align=left;labelPosition=right;pointerEvents=1;" vertex="1" parent="WIyWlLk6GJQsqaUBKTNV-1">
          <mxGeometry x="250" y="290" width="36" height="120" as="geometry" />
        </mxCell>
        <mxCell id="uddgrojwwecJSDZZouhw-13" value="Hybrid Solver" style="rounded=1;whiteSpace=wrap;html=1;fontSize=12;glass=0;strokeWidth=1;shadow=0;" vertex="1" parent="WIyWlLk6GJQsqaUBKTNV-1">
          <mxGeometry x="20" y="466" width="120" height="40" as="geometry" />
        </mxCell>
        <mxCell id="uddgrojwwecJSDZZouhw-23" style="edgeStyle=orthogonalEdgeStyle;rounded=0;orthogonalLoop=1;jettySize=auto;html=1;exitX=0;exitY=0.5;exitDx=0;exitDy=0;entryX=0.5;entryY=1;entryDx=0;entryDy=0;" edge="1" parent="WIyWlLk6GJQsqaUBKTNV-1" source="uddgrojwwecJSDZZouhw-15" target="uddgrojwwecJSDZZouhw-21">
          <mxGeometry relative="1" as="geometry" />
        </mxCell>
        <mxCell id="uddgrojwwecJSDZZouhw-24" style="edgeStyle=orthogonalEdgeStyle;rounded=0;orthogonalLoop=1;jettySize=auto;html=1;exitX=0.5;exitY=0;exitDx=0;exitDy=0;entryX=0;entryY=0.5;entryDx=0;entryDy=0;" edge="1" parent="WIyWlLk6GJQsqaUBKTNV-1" source="uddgrojwwecJSDZZouhw-21" target="uddgrojwwecJSDZZouhw-13">
          <mxGeometry relative="1" as="geometry" />
        </mxCell>
        <mxCell id="uddgrojwwecJSDZZouhw-21" value="Save data" style="rounded=1;whiteSpace=wrap;html=1;fontSize=12;glass=0;strokeWidth=1;shadow=0;" vertex="1" parent="WIyWlLk6GJQsqaUBKTNV-1">
          <mxGeometry x="-70" y="526" width="90" height="30" as="geometry" />
        </mxCell>
        <mxCell id="uddgrojwwecJSDZZouhw-15" value="Converge?" style="rhombus;whiteSpace=wrap;html=1;shadow=0;fontFamily=Helvetica;fontSize=12;align=center;strokeWidth=1;spacing=6;spacingTop=-4;" vertex="1" parent="WIyWlLk6GJQsqaUBKTNV-1">
          <mxGeometry x="36.25" y="576" width="87.5" height="70" as="geometry" />
        </mxCell>
        <mxCell id="uddgrojwwecJSDZZouhw-29" style="edgeStyle=orthogonalEdgeStyle;rounded=0;orthogonalLoop=1;jettySize=auto;html=1;exitX=0.5;exitY=1;exitDx=0;exitDy=0;entryX=0.5;entryY=0;entryDx=0;entryDy=0;" edge="1" parent="WIyWlLk6GJQsqaUBKTNV-1" source="uddgrojwwecJSDZZouhw-13" target="uddgrojwwecJSDZZouhw-15">
          <mxGeometry relative="1" as="geometry">
            <mxPoint x="200" y="546" as="sourcePoint" />
            <mxPoint x="130" y="506" as="targetPoint" />
          </mxGeometry>
        </mxCell>
        <mxCell id="uddgrojwwecJSDZZouhw-30" style="edgeStyle=orthogonalEdgeStyle;rounded=0;orthogonalLoop=1;jettySize=auto;html=1;exitX=0.5;exitY=1;exitDx=0;exitDy=0;" edge="1" parent="WIyWlLk6GJQsqaUBKTNV-1" source="uddgrojwwecJSDZZouhw-15">
          <mxGeometry relative="1" as="geometry">
            <mxPoint x="79.5" y="656" as="sourcePoint" />
            <mxPoint x="80" y="686" as="targetPoint" />
            <Array as="points" />
          </mxGeometry>
        </mxCell>
        <mxCell id="uddgrojwwecJSDZZouhw-31" value="Yes&lt;br&gt;" style="text;html=1;align=center;verticalAlign=middle;resizable=0;points=[];autosize=1;strokeColor=none;fillColor=none;" vertex="1" parent="WIyWlLk6GJQsqaUBKTNV-1">
          <mxGeometry x="90" y="646" width="30" height="20" as="geometry" />
        </mxCell>
        <mxCell id="uddgrojwwecJSDZZouhw-32" value="No" style="text;html=1;align=center;verticalAlign=middle;resizable=0;points=[];autosize=1;strokeColor=none;fillColor=none;" vertex="1" parent="WIyWlLk6GJQsqaUBKTNV-1">
          <mxGeometry x="-10" y="586" width="30" height="20" as="geometry" />
        </mxCell>
        <mxCell id="uddgrojwwecJSDZZouhw-34" value="Save converged data" style="rounded=1;whiteSpace=wrap;html=1;fontSize=12;glass=0;strokeWidth=1;shadow=0;" vertex="1" parent="WIyWlLk6GJQsqaUBKTNV-1">
          <mxGeometry x="36.25" y="687" width="108" height="36" as="geometry" />
        </mxCell>
        <mxCell id="uddgrojwwecJSDZZouhw-35" value="" style="shape=singleArrow;whiteSpace=wrap;html=1;" vertex="1" parent="WIyWlLk6GJQsqaUBKTNV-1">
          <mxGeometry x="170" y="471" width="70" height="30" as="geometry" />
        </mxCell>
        <mxCell id="uddgrojwwecJSDZZouhw-36" value="distribute&amp;nbsp;&lt;br&gt;&lt;br&gt;task" style="text;html=1;align=center;verticalAlign=middle;resizable=0;points=[];autosize=1;strokeColor=none;fillColor=none;" vertex="1" parent="WIyWlLk6GJQsqaUBKTNV-1">
          <mxGeometry x="165" y="461" width="70" height="50" as="geometry" />
        </mxCell>
        <mxCell id="uddgrojwwecJSDZZouhw-39" value="" style="edgeStyle=orthogonalEdgeStyle;rounded=0;orthogonalLoop=1;jettySize=auto;html=1;" edge="1" parent="WIyWlLk6GJQsqaUBKTNV-1" source="uddgrojwwecJSDZZouhw-37" target="uddgrojwwecJSDZZouhw-38">
          <mxGeometry relative="1" as="geometry" />
        </mxCell>
        <mxCell id="uddgrojwwecJSDZZouhw-37" value="Receive actuation&amp;nbsp;&lt;br&gt;vector" style="rounded=1;whiteSpace=wrap;html=1;fontSize=12;glass=0;strokeWidth=1;shadow=0;" vertex="1" parent="WIyWlLk6GJQsqaUBKTNV-1">
          <mxGeometry x="286" y="536" width="120" height="40" as="geometry" />
        </mxCell>
        <mxCell id="uddgrojwwecJSDZZouhw-41" value="" style="edgeStyle=orthogonalEdgeStyle;rounded=0;orthogonalLoop=1;jettySize=auto;html=1;" edge="1" parent="WIyWlLk6GJQsqaUBKTNV-1" source="uddgrojwwecJSDZZouhw-38" target="uddgrojwwecJSDZZouhw-40">
          <mxGeometry relative="1" as="geometry" />
        </mxCell>
        <mxCell id="uddgrojwwecJSDZZouhw-38" value="Call Abaqus script" style="whiteSpace=wrap;html=1;rounded=1;shadow=0;strokeWidth=1;glass=0;" vertex="1" parent="WIyWlLk6GJQsqaUBKTNV-1">
          <mxGeometry x="286" y="608" width="120" height="44" as="geometry" />
        </mxCell>
        <mxCell id="uddgrojwwecJSDZZouhw-45" style="edgeStyle=orthogonalEdgeStyle;rounded=0;orthogonalLoop=1;jettySize=auto;html=1;exitX=1;exitY=0.5;exitDx=0;exitDy=0;entryX=1;entryY=0.5;entryDx=0;entryDy=0;" edge="1" parent="WIyWlLk6GJQsqaUBKTNV-1" source="uddgrojwwecJSDZZouhw-40" target="uddgrojwwecJSDZZouhw-47">
          <mxGeometry relative="1" as="geometry">
            <mxPoint x="430" y="538" as="targetPoint" />
            <Array as="points">
              <mxPoint x="440" y="687" />
              <mxPoint x="440" y="486" />
            </Array>
          </mxGeometry>
        </mxCell>
        <mxCell id="uddgrojwwecJSDZZouhw-40" value="Get simulated mesh" style="whiteSpace=wrap;html=1;rounded=1;shadow=0;strokeWidth=1;glass=0;" vertex="1" parent="WIyWlLk6GJQsqaUBKTNV-1">
          <mxGeometry x="286" y="684" width="120" height="42" as="geometry" />
        </mxCell>
        <mxCell id="uddgrojwwecJSDZZouhw-42" value="" style="shape=singleArrow;whiteSpace=wrap;html=1;rotation=-135;" vertex="1" parent="WIyWlLk6GJQsqaUBKTNV-1">
          <mxGeometry x="170" y="556" width="70" height="30" as="geometry" />
        </mxCell>
        <mxCell id="uddgrojwwecJSDZZouhw-48" style="edgeStyle=orthogonalEdgeStyle;rounded=0;orthogonalLoop=1;jettySize=auto;html=1;exitX=0.5;exitY=1;exitDx=0;exitDy=0;entryX=0.5;entryY=0;entryDx=0;entryDy=0;" edge="1" parent="WIyWlLk6GJQsqaUBKTNV-1" source="uddgrojwwecJSDZZouhw-47" target="uddgrojwwecJSDZZouhw-37">
          <mxGeometry relative="1" as="geometry" />
        </mxCell>
        <mxCell id="uddgrojwwecJSDZZouhw-47" value="Wait for distribution" style="rounded=1;whiteSpace=wrap;html=1;fontSize=12;glass=0;strokeWidth=1;shadow=0;" vertex="1" parent="WIyWlLk6GJQsqaUBKTNV-1">
          <mxGeometry x="286" y="466" width="120" height="40" as="geometry" />
        </mxCell>
        <mxCell id="uddgrojwwecJSDZZouhw-52" value="" style="rounded=0;whiteSpace=wrap;html=1;fillColor=none;dashed=1;" vertex="1" parent="WIyWlLk6GJQsqaUBKTNV-1">
          <mxGeometry x="250" y="441" width="230" height="299" as="geometry" />
        </mxCell>
        <mxCell id="uddgrojwwecJSDZZouhw-53" value="" style="rounded=0;whiteSpace=wrap;html=1;fillColor=none;dashed=1;" vertex="1" parent="WIyWlLk6GJQsqaUBKTNV-1">
          <mxGeometry x="-80" y="441" width="240" height="299" as="geometry" />
        </mxCell>
      </root>
    </mxGraphModel>
  </diagram>
</mxfile>
